<?xml version="1.0" standalone="no"?>
<!DOCTYPE svg PUBLIC "-//W3C//DTD SVG 20010904//EN"
 "http://www.w3.org/TR/2001/REC-SVG-20010904/DTD/svg10.dtd">
<svg version="1.0" xmlns="http://www.w3.org/2000/svg"
 width="1535.000000pt" height="1535.000000pt" viewBox="0 0 1535.000000 1535.000000"
 preserveAspectRatio="xMidYMid meet">
<metadata>
Created by potrace 1.14, written by Peter Selinger 2001-2017
</metadata>
<g transform="translate(0.000000,1535.000000) scale(0.100000,-0.100000)"
fill="#000000" stroke="none">
<path d="M12590 15334 c-122 -19 -365 -88 -376 -105 -3 -5 -11 -9 -19 -9 -13
0 -155 -62 -185 -80 -8 -5 -29 -16 -46 -24 -51 -23 -243 -135 -324 -189 -242
-162 -358 -272 -1591 -1499 -977 -972 -1061 -1050 -1190 -1105 -24 -10 -124
-10 -214 1 -22 3 -67 8 -100 11 -33 4 -70 8 -83 10 -12 2 -62 7 -110 10 -48 4
-89 9 -92 10 -3 2 -46 6 -95 10 -50 4 -99 9 -110 11 -17 3 -291 32 -480 50
-33 3 -73 7 -90 9 -16 2 -59 6 -95 10 -126 12 -146 14 -250 25 -58 6 -125 13
-150 16 -54 5 -104 11 -225 24 -49 5 -124 12 -165 15 -41 3 -86 8 -100 10 -14
2 -56 7 -95 10 -38 3 -83 8 -100 10 -16 2 -68 7 -115 10 -47 4 -87 8 -90 10
-3 2 -48 6 -100 10 -52 4 -102 9 -111 10 -8 2 -47 6 -85 10 -38 3 -82 8 -99
10 -16 2 -64 7 -105 11 -41 4 -86 8 -100 9 -14 2 -74 8 -135 14 -60 6 -130 13
-155 16 -25 2 -72 7 -105 10 -33 3 -76 8 -95 10 -19 3 -62 7 -95 10 -33 3 -71
8 -85 10 -14 2 -63 7 -110 10 -47 4 -101 8 -120 10 -42 5 -313 33 -390 41 -30
2 -71 7 -90 9 -19 2 -57 7 -85 9 -111 12 -564 57 -625 62 -36 4 -73 8 -82 9
-9 2 -52 7 -95 10 -43 4 -85 8 -93 10 -8 2 -51 6 -95 10 -44 4 -91 8 -104 10
-12 2 -60 7 -105 10 -44 4 -88 8 -96 10 -8 2 -55 7 -105 11 -49 3 -98 8 -107
9 -9 2 -52 6 -95 10 -76 6 -94 8 -198 20 -27 3 -77 7 -110 10 -33 2 -80 7
-105 9 -25 3 -76 8 -115 11 -94 8 -213 20 -285 30 -19 2 -93 11 -164 20 -71 8
-145 18 -164 21 -75 12 -171 11 -213 -3 -23 -8 -68 -33 -98 -55 -58 -42 -734
-715 -876 -871 -95 -105 -108 -127 -102 -173 7 -52 33 -83 90 -109 29 -13 142
-64 252 -113 110 -49 225 -101 255 -115 30 -14 179 -80 330 -147 151 -67 312
-139 358 -161 46 -21 85 -39 87 -39 3 0 291 -130 505 -227 30 -14 141 -64 245
-110 105 -47 208 -93 230 -103 22 -10 81 -36 130 -58 50 -22 164 -74 255 -117
91 -42 181 -84 200 -92 19 -9 53 -24 75 -34 22 -10 139 -61 260 -114 222 -98
262 -116 390 -175 39 -18 90 -40 115 -50 39 -16 214 -95 770 -350 172 -79 101
-47 845 -375 284 -125 264 -116 379 -169 l98 -46 -28 -38 c-16 -20 -33 -42
-39 -48 -10 -11 -167 -181 -220 -239 -16 -16 -74 -79 -130 -140 -57 -60 -117
-126 -135 -145 -28 -30 -83 -89 -295 -315 -16 -18 -75 -81 -130 -141 -55 -59
-116 -124 -135 -145 -19 -20 -75 -81 -125 -135 -49 -54 -105 -114 -124 -133
-18 -20 -77 -83 -130 -140 -190 -206 -326 -339 -361 -353 -37 -15 -47 -15
-145 -5 -58 7 -113 12 -225 22 -30 3 -73 8 -95 10 -22 3 -71 7 -110 10 -38 3
-89 7 -113 10 -102 12 -170 19 -302 30 -66 6 -113 10 -210 20 -113 12 -220 23
-295 30 -46 5 -75 8 -180 20 -22 2 -71 7 -110 10 -38 3 -79 7 -90 9 -11 2 -67
7 -125 11 -58 4 -113 9 -122 10 -9 2 -58 6 -110 10 -51 4 -115 8 -143 10 -34
2 -58 -2 -75 -12 -63 -40 -263 -226 -530 -493 -218 -217 -319 -329 -321 -356
-1 -7 -2 -20 -3 -26 -4 -26 30 -70 79 -102 41 -28 336 -176 349 -176 2 0 44
-18 93 -41 109 -50 105 -48 343 -154 222 -99 243 -108 363 -164 49 -23 90 -41
92 -41 2 0 51 -23 110 -50 59 -28 108 -50 110 -50 1 0 45 -20 96 -44 52 -24
121 -56 154 -71 96 -43 405 -185 465 -212 105 -49 196 -91 310 -143 145 -66
223 -112 246 -148 34 -50 251 -503 294 -611 10 -26 34 -82 55 -126 99 -213
273 -591 315 -687 27 -58 55 -121 63 -140 9 -18 115 -253 237 -523 260 -573
278 -611 318 -648 51 -49 94 -40 192 41 98 81 634 621 679 684 78 110 93 191
77 406 -4 51 -9 101 -10 110 -7 33 -20 159 -31 292 -4 41 -8 77 -10 80 -2 3
-6 43 -10 89 -4 46 -8 91 -10 100 -1 9 -6 50 -10 91 -3 41 -8 91 -10 110 -2
19 -6 69 -10 110 -4 41 -8 91 -10 110 -2 19 -7 67 -10 105 -4 39 -8 90 -11
115 -2 25 -6 74 -9 110 -3 36 -7 84 -10 107 -3 23 -8 68 -10 100 -3 32 -7 76
-10 98 -2 22 -7 74 -10 115 -3 41 -8 89 -10 105 -2 17 -7 68 -10 115 l-7 85
134 127 c73 69 144 136 157 147 13 12 72 65 130 120 58 55 120 111 136 126 17
15 66 62 110 104 69 65 244 229 380 356 22 20 94 88 160 150 66 62 132 123
146 136 190 172 230 210 403 373 76 72 144 136 150 141 7 6 26 23 43 38 l31
28 40 -83 c50 -103 136 -291 172 -378 50 -118 92 -198 107 -204 9 -4 43 22 93
72 194 192 287 268 525 430 126 86 294 186 427 254 57 28 105 53 108 53 3 1
41 19 85 39 198 93 474 195 680 252 98 26 287 72 325 79 19 3 42 8 50 10 8 2
35 7 60 10 25 3 52 8 60 10 14 4 43 8 138 20 74 9 139 15 242 21 115 7 137 14
150 49 11 29 5 158 -15 315 -4 34 -9 80 -20 190 -3 30 -7 73 -10 95 -2 22 -7
72 -10 110 -3 39 -8 81 -10 95 -2 14 -7 59 -10 100 -4 41 -8 87 -10 103 -2 15
-7 62 -10 105 -4 42 -8 88 -10 102 -3 14 -7 57 -11 95 -7 74 -8 87 -18 175 -3
30 -8 75 -11 100 -2 25 -6 68 -10 95 -3 28 -8 68 -11 90 -4 37 -10 79 -19 150
-3 17 -7 84 -9 150 -4 105 -1 142 18 230 22 104 139 279 300 450 15 16 366
370 780 785 1414 1422 1480 1498 1708 1956 104 209 170 400 203 584 11 61 14
293 5 345 -18 107 -21 121 -35 162 -63 187 -185 333 -355 425 -61 33 -200 76
-280 87 -89 12 -260 10 -350 -5z"/>
<path d="M10788 7765 c-2 -1 -66 -5 -143 -9 -77 -3 -151 -8 -165 -10 -14 -2
-47 -7 -75 -10 -64 -8 -100 -14 -205 -32 -566 -96 -1141 -346 -1615 -702 -631
-474 -1103 -1137 -1355 -1902 -37 -111 -58 -185 -66 -224 -2 -10 -8 -33 -13
-50 -17 -54 -54 -265 -66 -381 -4 -33 -8 -70 -10 -82 -23 -144 -23 -695 0
-853 2 -14 6 -47 10 -75 28 -226 72 -428 142 -655 75 -243 193 -518 312 -725
28 -48 51 -90 51 -92 0 -2 9 -16 19 -31 10 -15 47 -70 81 -122 60 -91 182
-258 226 -310 220 -257 433 -461 659 -631 57 -43 227 -160 270 -186 11 -7 51
-31 89 -54 270 -164 728 -352 1006 -413 134 -30 310 -66 343 -70 52 -7 196
-23 262 -31 181 -20 476 -16 710 10 22 2 67 7 100 10 33 4 71 8 85 10 41 6
114 17 130 21 8 1 69 14 135 28 192 40 427 115 640 206 819 348 1542 1029
1967 1850 214 414 330 785 403 1290 23 162 23 587 0 735 -2 17 -9 65 -15 108
-16 109 -18 122 -37 207 -27 125 -175 632 -202 695 -5 11 -24 58 -42 105 -98
254 -388 750 -569 971 -90 110 -228 251 -365 374 -50 44 -92 82 -95 85 -45 45
-295 234 -415 313 -55 36 -105 71 -112 77 -7 5 -15 10 -18 10 -3 0 -24 12 -48
27 -213 136 -673 326 -937 388 -8 2 -46 11 -85 20 -77 19 -96 23 -140 31 -16
3 -49 9 -73 15 -23 5 -59 12 -80 14 -85 13 -104 15 -154 20 -29 4 -69 8 -88
11 -75 10 -444 26 -452 19z m209 -665 c57 -25 109 -81 143 -155 30 -64 38
-107 45 -224 2 -41 8 -78 13 -83 5 -5 37 -13 72 -19 174 -28 452 -150 623
-273 288 -207 503 -473 602 -746 15 -41 29 -84 31 -95 2 -11 7 -33 11 -50 4
-16 8 -82 8 -145 -1 -112 -2 -117 -37 -190 -54 -112 -125 -176 -251 -227 -73
-30 -121 -38 -217 -38 -121 1 -215 50 -296 159 -58 77 -139 250 -159 337 -2 9
-17 47 -33 86 -119 281 -285 438 -503 479 -60 11 -197 6 -274 -10 -292 -60
-513 -264 -576 -533 -82 -354 95 -714 436 -886 46 -23 320 -118 475 -165 577
-175 736 -234 899 -334 224 -136 411 -337 524 -563 59 -119 97 -240 133 -420
10 -52 12 -327 3 -393 -27 -194 -70 -340 -145 -498 -106 -221 -276 -433 -453
-564 -36 -28 -70 -53 -76 -58 -42 -33 -185 -109 -282 -148 -132 -54 -204 -74
-382 -104 -63 -11 -121 -25 -128 -32 -7 -8 -15 -42 -18 -78 -13 -153 -26 -205
-70 -272 -57 -86 -205 -137 -313 -108 -131 36 -218 156 -228 315 -3 39 -7 89
-10 112 l-5 42 -57 11 c-317 63 -589 159 -739 261 -143 97 -313 263 -430 419
-345 461 -324 902 52 1056 62 25 82 28 180 29 124 0 187 -18 271 -76 86 -59
91 -68 246 -404 41 -88 92 -187 115 -220 94 -139 247 -253 415 -309 49 -16 53
-17 153 -36 60 -12 270 -9 330 4 189 42 321 111 440 231 116 117 184 257 201
415 34 311 -90 510 -423 674 -125 62 -213 95 -448 166 -153 47 -274 87 -330
110 -11 4 -58 23 -105 40 -105 40 -383 177 -470 231 -60 37 -160 108 -221 155
-13 10 -73 69 -134 129 -193 193 -300 388 -356 645 -18 84 -23 138 -23 270 -1
198 6 276 40 439 50 237 130 399 298 599 189 224 415 390 676 495 94 38 152
53 262 71 59 10 65 25 71 166 7 152 46 229 144 287 91 53 192 61 280 23z"/>
</g>
</svg>
