<?xml version="1.0" encoding="UTF-8" standalone="no"?>
<svg
   xmlns:dc="http://purl.org/dc/elements/1.1/"
   xmlns:cc="http://creativecommons.org/ns#"
   xmlns:rdf="http://www.w3.org/1999/02/22-rdf-syntax-ns#"
   xmlns:svg="http://www.w3.org/2000/svg"
   xmlns="http://www.w3.org/2000/svg"
   xmlns:sodipodi="http://sodipodi.sourceforge.net/DTD/sodipodi-0.dtd"
   xmlns:inkscape="http://www.inkscape.org/namespaces/inkscape"
   inkscape:version="1.0 (4035a4fb49, 2020-05-01)"
   sodipodi:docname="FlightTracker_logo.svg"
   id="svg8"
   version="1.1"
   viewBox="0 0 210 297"
   height="297mm"
   width="210mm">
  <defs
     id="defs2">
    <clipPath
       clipPathUnits="userSpaceOnUse"
       id="clipPath2919">
      <path
         style="fill:#cccccc;fill-opacity:1;stroke-width:0.144649"
         d="m -60.101216,241.95185 c -11.717035,-13.09421 -10.799532,-33.21536 2.059475,-45.16492 2.740509,-2.54669 4.738556,-3.97439 7.447292,-5.32147 16.29135,-8.10178 35.497054,-1.81187 43.7023459,14.3126 0.5305179,1.04255 0.9743336,1.97755 0.9862593,2.07779 0.011896,0.10017 0.2252224,0.67876 0.4739999,1.28562 1.7260145,4.21026 2.5242577,11.76688 1.6932486,16.02916 -0.8826213,4.52694 -1.8682611,7.44727 -3.5215188,10.43382 -0.4320873,0.78054 -0.9367483,1.69309 -1.1214778,2.0279 -8.9217621,16.16968 -33.6060751,20.12011 -48.1499731,7.70582 -0.758971,-0.64787 -1.57928,-1.34694 -1.822876,-1.55355 -0.243629,-0.20657 -1.029842,-1.03114 -1.74679,-1.83275 z m 6.220158,-1.85858 c 0.820822,0.26493 1.747359,-0.0433 2.686479,-0.89372 0.929257,-0.84145 0.751268,-0.84491 1.943971,0.0372 9.883255,7.30914 23.707106,-1.62429 20.286195,-13.10961 -0.367625,-1.23425 -1.071652,-2.73005 -2.871099,-6.10003 -0.606296,-1.13548 -1.153869,-2.19677 -1.216817,-2.35844 -0.06293,-0.1617 -0.241622,-0.53455 -0.397036,-0.8286 -3.398096,-6.42954 3.358235,-12.86701 9.100489,-8.671 2.628806,1.92092 2.968993,4.6363 1.049209,8.37455 -1.521283,2.96229 -1.244237,4.87816 0.885511,6.12356 6.296944,3.68223 10.086862,-8.69358 4.935524,-16.11673 -0.31405,-0.4525 -0.31405,-0.4525 0.315822,-1.07842 1.764393,-1.75309 1.545581,-3.97818 -0.465216,-4.73272 -1.106635,-0.41525 -2.020337,-0.13526 -3.120818,0.95631 -0.710514,0.70476 -0.710514,0.70476 -1.239261,0.31059 -3.575411,-2.66545 -10.041254,-3.04177 -13.74099,-0.79974 -7.860543,4.76346 -8.806412,11.75524 -3.018882,22.31549 2.791979,5.09442 2.728959,8.01461 -0.218432,10.12137 -5.313256,3.79784 -12.902877,-2.59409 -10.465718,-8.81418 0.214686,-0.54793 0.512877,-1.33487 0.662629,-1.74874 0.149751,-0.41388 0.367023,-1.00143 0.482811,-1.30567 0.672875,-1.76803 -0.560767,-4.03575 -2.576523,-4.73623 -3.559155,-1.23681 -6.37403,2.22839 -6.54247,8.05401 -0.100003,3.45855 0.484426,5.17442 3.183575,9.34701 0.165407,0.25579 0.122706,0.33708 -0.508378,0.96714 -1.707712,1.70514 -1.292716,3.99522 0.849425,4.68664 z m -26.861326,-47.34564 c -0.131082,-0.4045 -0.02471,-0.77425 0.950743,-3.30466 0.329285,-0.85421 0.912286,-2.39235 1.295545,-3.41809 0.383256,-1.02574 1.047451,-2.75931 1.475989,-3.85238 0.428533,-1.09306 1.29317,-3.37991 1.921411,-5.0819 0.628244,-1.70198 1.16939,-3.12142 1.202547,-3.15431 0.07409,-0.0735 1.460259,-3.88207 1.826611,-5.01874 0.26637,-0.82645 0.26637,-0.82645 -0.919031,-4.03101 -0.651972,-1.7625 -1.402504,-3.81435 -1.667852,-4.55965 -0.265342,-0.74531 -0.832793,-2.29114 -1.260998,-3.43518 -0.428206,-1.14404 -1.089089,-2.91808 -1.468632,-3.9423 -0.379538,-1.02423 -0.994761,-2.6602 -1.367158,-3.63549 -1.994832,-5.22433 -2.115738,-5.78227 -1.35025,-6.2312 0.550203,-0.32266 10.047187,-0.17334 10.379202,0.1632 0.413187,0.41957 2.884827,3.37978 4.263381,5.10753 1.152163,1.44401 3.315626,4.10243 6.376311,7.83507 0.836067,1.01962 1.746438,2.13363 2.023044,2.47557 0.502967,0.62166 0.502967,0.62166 6.180349,0.42535 3.122582,-0.10798 5.94788,-0.20096 6.278441,-0.20662 1.038039,-0.0177 9.020306,-0.27625 10.01105,-0.3242 0.519919,-0.0252 0.945482,-0.0888 0.945694,-0.14131 2.43e-4,-0.0526 -0.377439,-1.08781 -0.839231,-2.30058 -0.461793,-1.21276 -1.193087,-3.13796 -1.625099,-4.27823 -0.432011,-1.14026 -1.091968,-2.86938 -1.466573,-3.84248 -0.374607,-0.97309 -0.693268,-1.84888 -0.708153,-1.94617 -0.01485,-0.0973 -0.334197,-0.97243 -0.709598,-1.94473 -0.375408,-0.9723 -1.079488,-2.84102 -1.56463,-4.1527 -0.485144,-1.31167 -1.305898,-3.47723 -1.823908,-4.81233 -0.518005,-1.33511 -1.108803,-2.90362 -1.312882,-3.48558 -0.204082,-0.58196 -0.850635,-2.32437 -1.436784,-3.87203 -0.586151,-1.54765 -1.536225,-4.08919 -2.111276,-5.64785 -0.575052,-1.55866 -1.430555,-3.82727 -1.90113,-5.04134 -0.470572,-1.21407 -1.10444,-2.87739 -1.408599,-3.69625 -1.577191,-4.24615 -1.838815,-4.9444 -1.990463,-5.31227 -0.203692,-0.49414 -0.0066,-1.05569 0.470839,-1.34173 0.242507,-0.14528 2.36102,-0.20394 6.459094,-0.17885 7.072218,0.0433 6.030839,-0.2996 8.404884,2.7675 0.784366,1.01334 1.886319,2.39447 2.44879,3.06916 1.524275,1.8284 3.934719,4.78811 5.828228,7.1563 0.924382,1.15613 2.299899,2.86309 3.056698,3.79326 3.770615,4.63441 8.046667,9.91567 10.337919,12.76812 1.402673,1.74625 3.073897,3.80167 3.713818,4.56763 0.639907,0.76597 2.2457009,2.74877 3.5684025,4.40625 1.3227034,1.65748 3.1095278,3.87328 3.9707206,4.924 1.6861315,2.05719 4.55076132,5.59915 6.0654869,7.49967 0.9377495,1.17657 0.9377495,1.17657 14.871216,1.24256 16.362573,0.0775 16.634548,0.095 20.866224,1.34215 11.536835,3.40012 11.983552,13.29682 0.765103,16.95008 -4.297949,1.39962 -5.42259,1.47428 -21.524946,1.42891 -15.85062877,-0.0447 -13.619869,-0.71937 -18.8483621,5.70077 -0.9346517,1.14767 -2.388809,2.91669 -3.2314828,3.93115 -0.8426663,1.01448 -2.092526,2.52731 -2.7774683,3.36189 -2.7704318,3.37559 -2.3099308,3.14746 -3.7537558,1.85962 -6.142089,-5.47851 -15.626264,-9.16823 -23.194188,-9.0235 -0.946076,0.0181 -0.959261,-0.008 -0.53794,-1.08462 1.562718,-3.99151 1.873454,-4.83812 1.802158,-4.91 -0.04472,-0.0451 -1.098608,-0.10372 -2.341991,-0.13033 -1.24338,-0.0266 -2.838526,-0.0866 -3.544761,-0.13324 -0.706236,-0.0467 -2.654924,-0.13076 -4.330403,-0.18687 -5.071239,-0.16984 -8.284934,-0.29378 -10.494986,-0.40476 -1.155905,-0.0581 -2.15195,-0.0545 -2.213431,0.008 -0.06145,0.0624 -0.736817,0.86969 -1.500747,1.79408 -0.76393,0.92439 -2.105255,2.52988 -2.980716,3.56776 -2.157911,2.55825 -3.246528,3.87166 -5.193789,6.26625 -3.898936,4.79461 -3.13595,4.40924 -8.717184,4.4029 -5.003823,-0.006 -5.417813,-0.0608 -5.641501,-0.75107 z"
         id="path2921" />
    </clipPath>
    <clipPath
       clipPathUnits="userSpaceOnUse"
       id="clipPath2991">
      <path
         style="fill:#cccccc;fill-opacity:1;stroke-width:0.144649"
         d="m -60.101212,241.95185 c -11.717035,-13.0942 -10.799532,-33.21536 2.059474,-45.16492 2.740509,-2.54669 4.738556,-3.97439 7.447293,-5.32147 16.291349,-8.10178 35.497053,-1.81187 43.7023455,14.3126 0.5305179,1.04255 0.9743336,1.97755 0.9862593,2.07779 0.011896,0.10017 0.2252225,0.67876 0.4739999,1.28562 1.7260147,4.21026 2.5242579,11.76688 1.6932489,16.02916 -0.8826212,4.52694 -1.8682609,7.44727 -3.5215186,10.43382 -0.4320873,0.78054 -0.9367482,1.69309 -1.1214777,2.0279 -8.9217623,16.16968 -33.6060743,20.12011 -48.1499733,7.70583 -0.75897,-0.64788 -1.57928,-1.34695 -1.822875,-1.55356 -0.24363,-0.20657 -1.029843,-1.03114 -1.746791,-1.83275 z m 6.220158,-1.85858 c 0.820822,0.26493 1.747359,-0.0433 2.686479,-0.89372 0.929258,-0.84144 0.751268,-0.8449 1.943971,0.0372 9.883255,7.30914 23.707106,-1.62429 20.286195,-13.10961 -0.367625,-1.23425 -1.071652,-2.73005 -2.871099,-6.10003 -0.606296,-1.13548 -1.153869,-2.19677 -1.216817,-2.35844 -0.06293,-0.1617 -0.241622,-0.53455 -0.397036,-0.8286 -3.398096,-6.42954 3.358235,-12.86701 9.100489,-8.671 2.628806,1.92092 2.968993,4.6363 1.049209,8.37455 -1.521283,2.9623 -1.244237,4.87816 0.88551,6.12356 6.296945,3.68223 10.086863,-8.69358 4.935525,-16.11673 -0.31405,-0.4525 -0.31405,-0.4525 0.315822,-1.07842 1.764393,-1.75309 1.545581,-3.97818 -0.465216,-4.73272 -1.106635,-0.41525 -2.020338,-0.13526 -3.120819,0.95631 -0.710514,0.70476 -0.710514,0.70476 -1.23926,0.31059 -3.575412,-2.66545 -10.041254,-3.04177 -13.740991,-0.79974 -7.860543,4.76346 -8.806411,11.75524 -3.018881,22.31549 2.791979,5.09442 2.728959,8.01461 -0.218432,10.12137 -5.313255,3.79784 -12.902877,-2.59409 -10.465718,-8.81418 0.214686,-0.54793 0.512877,-1.33487 0.662629,-1.74874 0.149751,-0.41388 0.367023,-1.00143 0.48281,-1.30567 0.672876,-1.76803 -0.560766,-4.03575 -2.576522,-4.73623 -3.559155,-1.23681 -6.374031,2.22839 -6.54247,8.05401 -0.100003,3.45855 0.484426,5.17442 3.183575,9.34701 0.165407,0.2558 0.122706,0.33708 -0.508378,0.96714 -1.707712,1.70514 -1.292716,3.99522 0.849425,4.68664 z m -26.861327,-47.34563 c -0.131082,-0.40451 -0.02471,-0.77426 0.950743,-3.30467 0.329285,-0.85421 0.912286,-2.39235 1.295546,-3.41809 0.383256,-1.02574 1.047451,-2.75931 1.475988,-3.85237 0.428533,-1.09306 1.29317,-3.37992 1.921411,-5.08191 0.628244,-1.70198 1.16939,-3.12142 1.202547,-3.15431 0.07409,-0.0735 1.460259,-3.88207 1.826611,-5.01874 0.26637,-0.82645 0.26637,-0.82645 -0.919031,-4.03101 -0.651972,-1.7625 -1.402504,-3.81435 -1.667853,-4.55965 -0.265341,-0.74531 -0.832792,-2.29113 -1.260997,-3.43517 -0.428207,-1.14405 -1.089089,-2.91809 -1.468633,-3.94231 -0.379537,-1.02423 -0.99476,-2.6602 -1.367157,-3.63548 -1.994833,-5.22434 -2.115738,-5.78228 -1.350251,-6.2312 0.550204,-0.32267 10.047187,-0.17335 10.379203,0.16319 0.413186,0.41957 2.884827,3.37978 4.263381,5.10753 1.152163,1.44401 3.315625,4.10243 6.37631,7.83507 0.836068,1.01963 1.746439,2.13363 2.023045,2.47557 0.502967,0.62166 0.502967,0.62166 6.180349,0.42535 3.122582,-0.10798 5.94788,-0.20096 6.27844,-0.20662 1.03804,-0.0177 9.020306,-0.27625 10.01105,-0.3242 0.51992,-0.0252 0.945483,-0.0888 0.945694,-0.1413 2.44e-4,-0.0526 -0.377438,-1.08782 -0.839231,-2.30059 -0.461792,-1.21276 -1.193086,-3.13796 -1.625098,-4.27823 -0.432011,-1.14026 -1.091969,-2.86938 -1.466573,-3.84248 -0.374608,-0.97309 -0.693269,-1.84888 -0.708153,-1.94617 -0.01485,-0.0973 -0.334197,-0.97243 -0.709598,-1.94473 -0.375408,-0.9723 -1.079489,-2.84102 -1.564631,-4.15269 -0.485144,-1.31168 -1.305898,-3.47724 -1.823908,-4.81234 -0.518005,-1.33511 -1.108802,-2.90362 -1.312882,-3.48558 -0.204082,-0.58196 -0.850635,-2.32437 -1.436784,-3.87203 -0.586151,-1.54765 -1.536224,-4.08918 -2.111275,-5.64784 -0.575053,-1.55867 -1.430556,-3.82728 -1.901131,-5.04135 -0.470572,-1.21407 -1.10444,-2.87738 -1.408599,-3.69625 -1.577192,-4.24615 -1.838816,-4.94439 -1.990463,-5.31227 -0.203693,-0.49414 -0.0066,-1.05569 0.470839,-1.34173 0.242507,-0.14527 2.36102,-0.20394 6.459094,-0.17885 7.072217,0.0433 6.030839,-0.2996 8.404884,2.7675 0.784366,1.01334 1.886319,2.39447 2.44879,3.06917 1.524275,1.82839 3.934719,4.7881 5.828228,7.15629 0.924382,1.15613 2.299899,2.86309 3.056699,3.79326 3.770614,4.63441 8.046666,9.91567 10.337918,12.76812 1.402674,1.74625 3.073898,3.80167 3.713818,4.56763 0.639907,0.76597 2.2457014,2.74877 3.568403,4.40625 1.3227035,1.65748 3.1095279,3.87328 3.9707207,4.924 1.6861316,2.05719 4.55076144,5.59915 6.0654871,7.49967 0.9377495,1.17657 0.9377495,1.17657 14.8712162,1.24256 16.362572,0.0775 16.634547,0.095 20.866223,1.34215 11.536836,3.40012 11.983553,13.29682 0.765104,16.95008 -4.297949,1.39962 -5.42259,1.47428 -21.524946,1.42891 -15.85062866,-0.0447 -13.6198689,-0.71937 -18.8483619,5.70077 -0.9346517,1.14767 -2.388809,2.91669 -3.2314827,3.93115 -0.8426663,1.01448 -2.092526,2.52731 -2.7774682,3.36189 -2.7704312,3.37559 -2.3099302,3.14746 -3.7537562,1.85962 -6.142089,-5.47851 -15.626264,-9.16823 -23.194187,-9.0235 -0.946077,0.0181 -0.959262,-0.008 -0.537941,-1.08462 1.562718,-3.99151 1.873454,-4.83812 1.802158,-4.91 -0.04472,-0.0451 -1.098608,-0.10372 -2.341991,-0.13033 -1.24338,-0.0266 -2.838525,-0.0866 -3.54476,-0.13324 -0.706237,-0.0467 -2.654925,-0.13076 -4.330404,-0.18687 -5.071239,-0.16983 -8.284934,-0.29377 -10.494986,-0.40476 -1.155905,-0.0581 -2.15195,-0.0545 -2.213431,0.008 -0.06145,0.0624 -0.736817,0.86969 -1.500747,1.79408 -0.76393,0.92439 -2.105255,2.52988 -2.980716,3.56776 -2.15791,2.55826 -3.246528,3.87166 -5.193789,6.26625 -3.898935,4.79461 -3.13595,4.40924 -8.717184,4.4029 -5.003823,-0.006 -5.417813,-0.0608 -5.641501,-0.75106 z"
         id="path2993" />
    </clipPath>
    <clipPath
       clipPathUnits="userSpaceOnUse"
       id="clipPath3017">
      <path
         style="fill:#cccccc;fill-opacity:1;stroke-width:0.144649"
         d="m -60.101216,241.95185 c -11.717035,-13.09421 -10.799532,-33.21536 2.059475,-45.16492 2.740509,-2.54669 4.738556,-3.97439 7.447292,-5.32147 16.29135,-8.10178 35.497054,-1.81187 43.7023459,14.3126 0.5305179,1.04255 0.9743336,1.97755 0.9862593,2.07779 0.011896,0.10017 0.2252224,0.67876 0.4739999,1.28562 1.7260145,4.21026 2.5242577,11.76688 1.6932486,16.02916 -0.8826213,4.52694 -1.8682611,7.44727 -3.5215188,10.43382 -0.4320873,0.78054 -0.9367483,1.69309 -1.1214778,2.0279 -8.9217621,16.16968 -33.6060751,20.12011 -48.1499731,7.70582 -0.758971,-0.64787 -1.57928,-1.34694 -1.822876,-1.55355 -0.243629,-0.20657 -1.029842,-1.03114 -1.74679,-1.83275 z m 6.220158,-1.85858 c 0.820822,0.26493 1.747359,-0.0433 2.686479,-0.89372 0.929257,-0.84145 0.751268,-0.84491 1.943971,0.0372 9.883255,7.30914 23.707106,-1.62429 20.286195,-13.10961 -0.367625,-1.23425 -1.071652,-2.73005 -2.871099,-6.10003 -0.606296,-1.13548 -1.153869,-2.19677 -1.216817,-2.35844 -0.06293,-0.1617 -0.241622,-0.53455 -0.397036,-0.8286 -3.398096,-6.42954 3.358235,-12.86701 9.100489,-8.671 2.628806,1.92092 2.968993,4.6363 1.049209,8.37455 -1.521283,2.96229 -1.244237,4.87816 0.885511,6.12356 6.296944,3.68223 10.086862,-8.69358 4.935524,-16.11673 -0.31405,-0.4525 -0.31405,-0.4525 0.315822,-1.07842 1.764393,-1.75309 1.545581,-3.97818 -0.465216,-4.73272 -1.106635,-0.41525 -2.020337,-0.13526 -3.120818,0.95631 -0.710514,0.70476 -0.710514,0.70476 -1.239261,0.31059 -3.575411,-2.66545 -10.041254,-3.04177 -13.74099,-0.79974 -7.860543,4.76346 -8.806412,11.75524 -3.018882,22.31549 2.791979,5.09442 2.728959,8.01461 -0.218432,10.12137 -5.313256,3.79784 -12.902877,-2.59409 -10.465718,-8.81418 0.214686,-0.54793 0.512877,-1.33487 0.662629,-1.74874 0.149751,-0.41388 0.367023,-1.00143 0.482811,-1.30567 0.672875,-1.76803 -0.560767,-4.03575 -2.576523,-4.73623 -3.559155,-1.23681 -6.37403,2.22839 -6.54247,8.05401 -0.100003,3.45855 0.484426,5.17442 3.183575,9.34701 0.165407,0.25579 0.122706,0.33708 -0.508378,0.96714 -1.707712,1.70514 -1.292716,3.99522 0.849425,4.68664 z m -26.861326,-47.34564 c -0.131082,-0.4045 -0.02471,-0.77425 0.950743,-3.30466 0.329285,-0.85421 0.912286,-2.39235 1.295545,-3.41809 0.383256,-1.02574 1.047451,-2.75931 1.475989,-3.85238 0.428533,-1.09306 1.29317,-3.37991 1.921411,-5.0819 0.628244,-1.70198 1.16939,-3.12142 1.202547,-3.15431 0.07409,-0.0735 1.460259,-3.88207 1.826611,-5.01874 0.26637,-0.82645 0.26637,-0.82645 -0.919031,-4.03101 -0.651972,-1.7625 -1.402504,-3.81435 -1.667852,-4.55965 -0.265342,-0.74531 -0.832793,-2.29114 -1.260998,-3.43518 -0.428206,-1.14404 -1.089089,-2.91808 -1.468632,-3.9423 -0.379538,-1.02423 -0.994761,-2.6602 -1.367158,-3.63549 -1.994832,-5.22433 -2.115738,-5.78227 -1.35025,-6.2312 0.550203,-0.32266 10.047187,-0.17334 10.379202,0.1632 0.413187,0.41957 2.884827,3.37978 4.263381,5.10753 1.152163,1.44401 3.315626,4.10243 6.376311,7.83507 0.836067,1.01962 1.746438,2.13363 2.023044,2.47557 0.502967,0.62166 0.502967,0.62166 6.180349,0.42535 3.122582,-0.10798 5.94788,-0.20096 6.278441,-0.20662 1.038039,-0.0177 9.020306,-0.27625 10.01105,-0.3242 0.519919,-0.0252 0.945482,-0.0888 0.945694,-0.14131 2.43e-4,-0.0526 -0.377439,-1.08781 -0.839231,-2.30058 -0.461793,-1.21276 -1.193087,-3.13796 -1.625099,-4.27823 -0.432011,-1.14026 -1.091968,-2.86938 -1.466573,-3.84248 -0.374607,-0.97309 -0.693268,-1.84888 -0.708153,-1.94617 -0.01485,-0.0973 -0.334197,-0.97243 -0.709598,-1.94473 -0.375408,-0.9723 -1.079488,-2.84102 -1.56463,-4.1527 -0.485144,-1.31167 -1.305898,-3.47723 -1.823908,-4.81233 -0.518005,-1.33511 -1.108803,-2.90362 -1.312882,-3.48558 -0.204082,-0.58196 -0.850635,-2.32437 -1.436784,-3.87203 -0.586151,-1.54765 -1.536225,-4.08919 -2.111276,-5.64785 -0.575052,-1.55866 -1.430555,-3.82727 -1.90113,-5.04134 -0.470572,-1.21407 -1.10444,-2.87739 -1.408599,-3.69625 -1.577191,-4.24615 -1.838815,-4.9444 -1.990463,-5.31227 -0.203692,-0.49414 -0.0066,-1.05569 0.470839,-1.34173 0.242507,-0.14528 2.36102,-0.20394 6.459094,-0.17885 7.072218,0.0433 6.030839,-0.2996 8.404884,2.7675 0.784366,1.01334 1.886319,2.39447 2.44879,3.06916 1.524275,1.8284 3.934719,4.78811 5.828228,7.1563 0.924382,1.15613 2.299899,2.86309 3.056698,3.79326 3.770615,4.63441 8.046667,9.91567 10.337919,12.76812 1.402673,1.74625 3.073897,3.80167 3.713818,4.56763 0.639907,0.76597 2.2457009,2.74877 3.5684025,4.40625 1.3227034,1.65748 3.1095278,3.87328 3.9707206,4.924 1.6861315,2.05719 4.55076132,5.59915 6.0654869,7.49967 0.9377495,1.17657 0.9377495,1.17657 14.871216,1.24256 16.362573,0.0775 16.634548,0.095 20.866224,1.34215 11.536835,3.40012 11.983552,13.29682 0.765103,16.95008 -4.297949,1.39962 -5.42259,1.47428 -21.524946,1.42891 -15.85062877,-0.0447 -13.619869,-0.71937 -18.8483621,5.70077 -0.9346517,1.14767 -2.388809,2.91669 -3.2314828,3.93115 -0.8426663,1.01448 -2.092526,2.52731 -2.7774683,3.36189 -2.7704318,3.37559 -2.3099308,3.14746 -3.7537558,1.85962 -6.142089,-5.47851 -15.626264,-9.16823 -23.194188,-9.0235 -0.946076,0.0181 -0.959261,-0.008 -0.53794,-1.08462 1.562718,-3.99151 1.873454,-4.83812 1.802158,-4.91 -0.04472,-0.0451 -1.098608,-0.10372 -2.341991,-0.13033 -1.24338,-0.0266 -2.838526,-0.0866 -3.544761,-0.13324 -0.706236,-0.0467 -2.654924,-0.13076 -4.330403,-0.18687 -5.071239,-0.16984 -8.284934,-0.29378 -10.494986,-0.40476 -1.155905,-0.0581 -2.15195,-0.0545 -2.213431,0.008 -0.06145,0.0624 -0.736817,0.86969 -1.500747,1.79408 -0.76393,0.92439 -2.105255,2.52988 -2.980716,3.56776 -2.157911,2.55825 -3.246528,3.87166 -5.193789,6.26625 -3.898936,4.79461 -3.13595,4.40924 -8.717184,4.4029 -5.003823,-0.006 -5.417813,-0.0608 -5.641501,-0.75107 z"
         id="path3019" />
    </clipPath>
  </defs>
  <sodipodi:namedview
     inkscape:window-maximized="1"
     inkscape:window-y="-11"
     inkscape:window-x="-11"
     inkscape:window-height="2066"
     inkscape:window-width="3840"
     inkscape:guide-bbox="true"
     showguides="false"
     showgrid="false"
     inkscape:document-rotation="0"
     inkscape:current-layer="layer1"
     inkscape:document-units="mm"
     inkscape:cy="645.3497"
     inkscape:cx="467.15868"
     inkscape:zoom="0.7"
     inkscape:pageshadow="2"
     inkscape:pageopacity="0.0"
     borderopacity="1.0"
     bordercolor="#666666"
     pagecolor="#ffffff"
     id="base">
    <sodipodi:guide
       inkscape:color="rgb(0,0,255)"
       inkscape:locked="false"
       inkscape:label=""
       id="guide2767"
       orientation="-0.70710678,0.70710678"
       position="168.86972,227.53801" />
    <sodipodi:guide
       id="guide2771"
       orientation="-0.70710678,0.70710678"
       position="138.71726,233.12202" />
  </sodipodi:namedview>
  <metadata
     id="metadata5">
    <rdf:RDF>
      <cc:Work
         rdf:about="">
        <dc:format>image/svg+xml</dc:format>
        <dc:type
           rdf:resource="http://purl.org/dc/dcmitype/StillImage" />
      </cc:Work>
    </rdf:RDF>
  </metadata>
  <g
     style="display:none"
     inkscape:label="Lines"
     id="layer2"
     inkscape:groupmode="layer">
    <path
       d="m -60.071316,118.35378 h 86.089035 v 9.31206 h -86.089035 z"
       transform="rotate(-45.232824)"
       inkscape:transform-center-y="2.4188387"
       inkscape:transform-center-x="-28.488558"
       style="fill:#304cb2;fill-opacity:1;stroke:#000000;stroke-width:0;stroke-linecap:square;stroke-miterlimit:0"
       id="rect2765-6-0" />
    <path
       d="m -60.084282,130.85854 h 86.089035 v 9.31205 h -86.089035 z"
       transform="rotate(-45.232824)"
       style="fill:#e51d23;fill-opacity:1;stroke:#000000;stroke-width:0;stroke-linecap:square;stroke-miterlimit:0"
       id="rect2765" />
    <path
       d="m -60.097256,143.36327 h 86.089035 v 9.31205 h -86.089035 z"
       transform="rotate(-45.232824)"
       inkscape:transform-center-y="2.4188338"
       inkscape:transform-center-x="-28.488556"
       style="fill:#ffbf27;fill-opacity:1;stroke:#000000;stroke-width:0;stroke-linecap:square;stroke-miterlimit:0"
       id="rect2765-6" />
  </g>
  <g
     id="layer1"
     inkscape:groupmode="layer"
     inkscape:label="Layer 1">
    <g
       transform="translate(0.67563285,-8.6929542)"
       id="g3073"
       inkscape:export-ydpi="300"
       inkscape:export-xdpi="300">
      <path
         style="fill:#cccccc;fill-opacity:1;stroke-width:0.144649"
         d="m 129.45466,213.05949 c -17.54801,-0.90251 -31.187384,-15.72379 -30.615594,-33.26856 0.121859,-3.73914 0.515306,-6.16313 1.466484,-9.03491 5.72076,-17.27194 23.71162,-26.47797 40.93797,-20.94822 1.11379,0.35754 2.09017,0.7009 2.16973,0.76302 0.0795,0.0621 0.64051,0.3181 1.24656,0.56884 4.20469,1.73956 10.13184,6.49441 12.57273,10.08602 2.59244,3.81463 3.97169,6.57099 4.92779,9.84797 0.24988,0.85645 0.54237,1.85739 0.64998,2.22432 5.19711,17.72136 -9.38156,38.02859 -28.4376,39.6119 -0.99446,0.0826 -2.06847,0.17269 -2.3867,0.20014 -0.31823,0.0275 -1.45733,0.005 -2.53135,-0.0505 z m 3.06086,-5.72502 c 0.76614,-0.39619 1.1998,-1.27107 1.25738,-2.53671 0.057,-1.25232 -0.0708,-1.12839 1.39538,-1.354 12.14936,-1.86956 15.54199,-17.97531 4.97861,-23.63483 -1.13518,-0.60819 -2.69295,-1.16173 -6.35277,-2.2574 -1.23313,-0.36918 -2.37224,-0.72781 -2.53135,-0.79697 -0.15912,-0.0692 -0.54967,-0.2049 -0.86789,-0.30164 -6.95784,-2.1153 -6.77028,-11.44556 0.25263,-12.56747 3.21508,-0.51362 5.3825,1.1571 6.6846,5.15268 1.03182,3.1662 2.58714,4.31871 4.97117,3.68369 7.04877,-1.87754 0.93123,-13.28367 -7.96673,-14.85394 -0.54243,-0.0957 -0.54243,-0.0957 -0.54324,-0.98368 -0.002,-2.48725 -1.73597,-3.89887 -3.68773,-3.00262 -1.07414,0.49325 -1.51881,1.33913 -1.51881,2.88916 0,1.00076 0,1.00076 -0.65221,1.09857 -4.41031,0.66136 -9.23091,4.98693 -10.24458,9.19255 -2.15368,8.93534 2.1442,14.53069 13.71744,17.85851 5.5831,1.6054 7.61198,3.70662 7.03209,7.28283 -1.04537,6.44682 -10.9283,7.33388 -13.62809,1.2232 -0.23783,-0.53829 -0.58654,-1.30418 -0.77492,-1.70196 -0.18838,-0.39778 -0.45252,-0.96581 -0.58698,-1.26227 -0.7814,-1.72282 -3.26019,-2.44396 -5.17706,-1.50612 -3.38456,1.65591 -2.90667,6.09469 1.11075,10.31684 2.38506,2.50661 4.01485,3.30004 8.8781,4.32217 0.29809,0.0627 0.32573,0.15026 0.32863,1.04202 0.008,2.41324 1.92614,3.73134 3.92558,2.69739 z M 79.984851,193.06322 c -0.379499,-0.1918 -0.567101,-0.52771 -1.676689,-3.00224 -0.374573,-0.83534 -1.056051,-2.33246 -1.514398,-3.32692 -0.458346,-0.99445 -1.221389,-2.68684 -1.695652,-3.76086 -0.474262,-1.07401 -1.488971,-3.29835 -2.254912,-4.94297 -0.765938,-1.64462 -1.392615,-3.02843 -1.392615,-3.07513 0,-0.10436 -1.727816,-3.77061 -2.276824,-4.83118 -0.399175,-0.77113 -0.399175,-0.77113 -3.509119,-2.18626 -1.71047,-0.77832 -3.695772,-1.69043 -4.411782,-2.0269 -0.71601,-0.33648 -2.213123,-1.02222 -3.326917,-1.52387 -1.113794,-0.50165 -2.838729,-1.28177 -3.833188,-1.73359 -0.994458,-0.45183 -2.589209,-1.16713 -3.54389,-1.58956 -5.113956,-2.26284 -5.595228,-2.56992 -5.374875,-3.42954 0.158384,-0.61786 6.952436,-7.25532 7.425186,-7.25404 0.588858,0.002 4.431132,0.33198 6.628604,0.56997 1.836597,0.19891 5.247578,0.53504 10.053076,0.99066 1.312686,0.12446 2.744707,0.26263 3.182269,0.30705 0.795567,0.0807 0.795567,0.0807 4.654366,-4.08834 2.12234,-2.293 4.045979,-4.36437 4.274757,-4.60304 0.718413,-0.74948 6.156214,-6.59873 6.819881,-7.3359 0.348276,-0.38685 0.602823,-0.73377 0.565661,-0.77093 -0.03716,-0.0372 -1.038125,-0.4981 -2.224364,-1.0243 -1.186237,-0.5262 -3.06808,-1.36278 -4.181874,-1.85907 -1.113794,-0.49629 -2.806182,-1.24543 -3.760863,-1.66475 -0.954681,-0.41932 -1.800875,-0.80983 -1.880431,-0.86778 -0.07956,-0.058 -0.925751,-0.44754 -1.880432,-0.86574 -0.95468,-0.41819 -2.777253,-1.23431 -4.05016,-1.81359 -1.272907,-0.57928 -3.388393,-1.52161 -4.701079,-2.09405 -1.312686,-0.57245 -2.842344,-1.25759 -3.399241,-1.52253 -0.556897,-0.26494 -2.249286,-1.03296 -3.760863,-1.70671 -1.511578,-0.67375 -3.985069,-1.78904 -5.496646,-2.47842 -1.511578,-0.68938 -3.724701,-1.67961 -4.918052,-2.2005 -1.19335,-0.52089 -2.820647,-1.24221 -3.616214,-1.60293 -4.12536,-1.87049 -4.805342,-2.17647 -5.173317,-2.32787 -0.494269,-0.20337 -0.754187,-0.73874 -0.621019,-1.27917 0.06764,-0.27448 1.517906,-1.81988 4.421696,-4.71174 5.011191,-4.9906 4.034372,-4.49273 7.883806,-4.0183 1.271818,0.15674 3.028407,0.34701 3.903531,0.42281 2.37155,0.20541 6.170373,0.57837 9.185185,0.90177 1.471799,0.15789 3.652376,0.3834 4.845727,0.50114 5.945686,0.58664 12.706555,1.26996 16.345289,1.65201 2.227588,0.23389 4.863809,0.49485 5.858268,0.57993 0.994459,0.0851 3.533041,0.34137 5.641294,0.56953 2.108253,0.22816 4.939749,0.51999 6.292209,0.64851 2.64797,0.25162 7.18002,0.71215 9.59605,0.97513 1.49573,0.1628 1.49573,0.1628 11.35491,-9.683133 11.578,-11.562428 11.78195,-11.743204 15.64746,-13.869306 10.53856,-5.796392 17.87955,0.855975 12.57293,11.393516 -2.03304,4.037083 -2.77204,4.888123 -14.14397,16.288433 -11.19416,11.22209 -10.10222,9.16316 -9.22614,17.39649 0.15661,1.4718 0.38851,3.75001 0.51532,5.0627 0.12682,1.31269 0.32071,3.26544 0.43088,4.33946 0.44557,4.34412 0.6079,3.85652 -1.32321,3.97467 -8.21503,0.50261 -17.51366,4.63772 -22.74044,10.11268 -0.65341,0.68443 -0.68157,0.67507 -1.14889,-0.3819 -1.73336,-3.92042 -2.1156,-4.73724 -2.21684,-4.73724 -0.0635,0 -0.84731,0.70694 -1.74183,1.57097 -0.89451,0.86403 -2.060423,1.95432 -2.590911,2.42286 -0.530489,0.46854 -1.96251,1.79284 -3.182269,2.94287 -3.69188,3.48085 -6.043049,5.67521 -7.678227,7.16613 -0.855235,0.77978 -1.554175,1.48943 -1.5532,1.57699 10e-4,0.0876 0.09857,1.13558 0.21688,2.32893 0.118309,1.19335 0.313572,3.27629 0.433917,4.62875 0.296634,3.33365 0.462483,5.03148 0.791265,8.10032 0.65831,6.14464 0.922025,5.33155 -3.012937,9.28962 -3.527866,3.54858 -3.858539,3.80369 -4.506137,3.4764 z"
         id="path2754" />
      <path
         clip-path="url(#clipPath2919)"
         d="m -60.071316,118.35378 h 86.089035 v 9.31206 h -86.089035 z"
         transform="rotate(-45.232824)"
         inkscape:transform-center-y="2.4188387"
         inkscape:transform-center-x="-28.488558"
         style="fill:#304cb2;fill-opacity:1;stroke:#000000;stroke-width:0;stroke-linecap:square;stroke-miterlimit:0"
         id="rect2765-6-0-8" />
      <path
         clip-path="url(#clipPath2991)"
         d="m -60.084282,130.85854 h 86.089035 v 9.31205 h -86.089035 z"
         transform="rotate(-45.232824,-3.5396785e-8,3.4605586e-6)"
         style="fill:#e51d23;fill-opacity:1;stroke:#000000;stroke-width:0;stroke-linecap:square;stroke-miterlimit:0"
         id="rect2765-8" />
      <path
         clip-path="url(#clipPath3017)"
         d="m -60.097256,143.36327 h 86.089035 v 9.31205 h -86.089035 z"
         transform="rotate(-45.232824)"
         inkscape:transform-center-y="2.4188338"
         inkscape:transform-center-x="-28.488556"
         style="fill:#ffbf27;fill-opacity:1;stroke:#000000;stroke-width:0;stroke-linecap:square;stroke-miterlimit:0"
         id="rect2765-6-8" />
    </g>
  </g>
</svg>
